<svg xmlns="http://www.w3.org/2000/svg" viewBox="0 0 1440 320"><path fill="#455A64" fill-opacity="0.5" d="M0,256L30,261.3C60,267,120,277,180,272C240,267,300,245,360,213.3C420,181,480,139,540,128C600,117,660,139,720,165.3C780,192,840,224,900,234.7C960,245,1020,235,1080,202.7C1140,171,1200,117,1260,101.3C1320,85,1380,107,1410,117.3L1440,128L1440,320L1410,320C1380,320,1320,320,1260,320C1200,320,1140,320,1080,320C1020,320,960,320,900,320C840,320,780,320,720,320C660,320,600,320,540,320C480,320,420,320,360,320C300,320,240,320,180,320C120,320,60,320,30,320L0,320Z"></path></svg>